<svg id="Layer_1" data-name="Layer 1" xmlns="http://www.w3.org/2000/svg">
    <defs>
        <style>
            .cls-2{fill:#72c2cf}
        </style>
    </defs>
    <path class="cls-2" d="M113.31472,62.45219c-5.02715,2.45683-13.62539,5.86113-22.6625,5.86113S73.01687,64.909,67.989,62.45219c-5.02715,2.45683-13.62539,5.86113-22.66182,5.86113-9.03779,0-17.63672-3.405-22.66523-5.86113C17.63484,64.909,9.03694,68.31315,0,68.31332V96.96991a14.43487,14.43487,0,0,0,14.39255,14.39247H121.58689a14.43473,14.43473,0,0,0,14.39238-14.39247V68.31332C126.94182,68.31315,118.34307,64.90829,113.31472,62.45219Z"/>
    <path class="cls-2" d="M18.26921,45.76293l4.39961-2.68448,4.40508,2.6961c2.60654,1.59,11.0086,5.747,18.25332,5.747,8.70352,0,18.15625-5.68887,18.24922-5.74629l4.4126-2.72617L72.401,45.77455c2.60655,1.59,11.00791,5.747,18.25127,5.747s15.644-4.15693,18.26973-5.75859l4.39961-2.68448,4.40508,2.6961c2.60637,1.59,11.00808,5.7468,18.25263,5.747V14.39247A14.43472,14.43472,0,0,0,121.58689,0H14.39255A14.43487,14.43487,0,0,0,0,14.39247V51.52152C7.24319,51.52126,15.64353,47.36454,18.26921,45.76293Z"/>
</svg>
